# xmcd
#
# Track frame offsets:
#	150
#	13486
#	27848
#	45267
#	55228
#	69598
#	86722
#	105439
#	122924
#	139508
#	154060
#	167882
#	179929
#	190176
#
# Disc length: 2639 seconds
# Revision: 2
# Processed by: cddbd v1.5.2PL0 Copyright (c) Steve Scherf et al.
# Submitted via: dBpowerAMP V12.0
#
DISCID=c10a4d0e
DTITLE=Tim Stafford - Endless Line
DYEAR=2004
DGENRE=Country
TTITLE0=Cold Harbor
TTITLE1=Rider on an Endless Line
TTITLE2=The Kid
TTITLE3=Methodist Preacher
TTITLE4=Bad Reputation
TTITLE5=Mamma Llama
TTITLE6=Danville Girl
TTITLE7=Obsession
TTITLE8=Rain
TTITLE9=Indigo Blue
TTITLE10=Holiday on Mission Street
TTITLE11=If Only for a Day
TTITLE12=If I Had the Money I Would Ride That Train
TTITLE13=The Reason
EXTD=
EXTT0=
EXTT1=
EXTT2=
EXTT3=
EXTT4=
EXTT5=
EXTT6=
EXTT7=
EXTT8=
EXTT9=
EXTT10=
EXTT11=
EXTT12=
EXTT13=
PLAYORDER=
